<?xml version="1.0" encoding="utf-8"?>
<!-- Generator: Adobe Illustrator 21.0.0, SVG Export Plug-In . SVG Version: 6.00 Build 0)  -->
<svg version="1.1" id="Layer_1" xmlns="http://www.w3.org/2000/svg" xmlns:xlink="http://www.w3.org/1999/xlink" x="0px" y="0px"
	 viewBox="0 0 248 60" style="enable-background:new 0 0 248 60;" xml:space="preserve">
<style type="text/css">
	.st0{fill:#E3F1D1;stroke:#9E9E9E;stroke-miterlimit:10;}
	.st1{fill:#EEEFEB;}
	.st2{fill:#757380;}
	.st3{fill:#605F6B;}
	.st4{fill:#21212C;}
	.st5{fill:#010101;}
	.st6{fill:#4C4B56;}
	.st7{fill:#373641;}
	.st8{fill:#D6D6D1;}
	.st9{fill:#C6C6C1;}
	.st10{fill:#BADD8C;}
	.st11{fill:#A3D165;}
	.st12{fill:#A3D165;stroke:#8CC63F;stroke-miterlimit:10;}
	.st13{fill:#A6EB7C;}
</style>
<path class="st0" d="M37.8,39.5h22.5c1.3-3,2-6.3,2-9.9C62.3,15.6,50.9,4.3,37,4.3c-13.2,0-24,10.1-25.2,23L37.8,39.5z"/>
<path class="st1" d="M60.7,38.1H12.8c0.3,1,0.8,2,1.3,3h45.4C59.9,40.1,60.3,39.1,60.7,38.1L60.7,38.1z"/>
<path class="st2" d="M17.9,40.9v6c4.6,5.2,11.3,8.4,18.8,8.4c10,0,18.8-5.9,22.8-14.4H17.9z"/>
<path class="st3" d="M37.1,40.9H17.9v6c4.6,5.2,11.3,8.4,18.8,8.4c0.1,0,0.2,0,0.3,0C31.4,52.4,31.5,43.7,37.1,40.9z"/>
<path class="st4" d="M53.6,30.6c-5.9,0-10.6,4.7-10.6,10.6s4.7,10.6,10.6,10.6s10.6-4.7,10.6-10.6S59.5,30.6,53.6,30.6L53.6,30.6z
	 M53.6,47.9c-3.7,0-6.6-2.9-6.6-6.6c0-3.7,2.9-6.6,6.6-6.6c3.7,0,6.6,2.9,6.6,6.6C60.2,44.9,57.3,47.9,53.6,47.9z"/>
<path class="st5" d="M59.5,50.1c-1.5-0.3-1.7-1.3-1.8-1.9c0-0.3-0.2-0.5-0.4-0.6c-0.3-0.1-0.5-0.3-0.7-0.5c-0.9,0.5-2,0.8-3.1,0.8
	c-3.7,0-6.6-2.9-6.6-6.6c0-2.3,1.1-4.3,2.9-5.5l-2.2-3.4c-2.9,1.9-4.8,5.2-4.8,8.9c0,5.9,4.7,10.6,10.6,10.6
	C55.8,51.9,57.8,51.2,59.5,50.1L59.5,50.1z"/>
<path class="st6" d="M53.6,48.9c-4.2,0-7.6-3.4-7.6-7.6s3.4-7.6,7.6-7.6s7.6,3.4,7.6,7.6S57.8,48.9,53.6,48.9z"/>
<path class="st7" d="M53.6,48.9c1.5,0,2.8-0.4,4-1.1c-0.1-0.1-0.2-0.1-0.2-0.2c-0.7-0.3-0.8-0.8-0.8-1.3c0-0.3-0.2-0.5-0.4-0.5
	c-0.8-0.3-1-1-0.9-1.4c0-0.3-0.2-0.5-0.4-0.6c-1.1-0.5-0.8-1.8-0.8-1.8l-4.7-7.1c-2.1,1.4-3.4,3.7-3.4,6.4
	C46,45.5,49.4,48.9,53.6,48.9L53.6,48.9z"/>
<ellipse transform="matrix(0.9394 -0.3428 0.3428 0.9394 -10.8712 20.899)" class="st8" cx="53.7" cy="41.2" rx="5.6" ry="5.6"/>
<path class="st9" d="M53.6,46.8c1,0,2-0.3,2.8-0.8c-0.1-0.1-0.2-0.2-0.3-0.2c-0.8-0.3-1-1-0.9-1.4c0-0.3-0.2-0.5-0.4-0.6
	C53.7,43.3,54,42,54,42l-3.5-5.4c-1.5,1-2.5,2.7-2.5,4.6C48.1,44.3,50.6,46.8,53.6,46.8L53.6,46.8z"/>
<path class="st6" d="M17.8,37.8l-4.9,0.5c0.2,0.5,0.4,1,0.5,1.5l1.5,2.9l0,0c0.3,0.4,0.5,0.9,0.8,1.3h7.2L17.8,37.8z"/>
<path class="st6" d="M53.6,38.1c-1.7,0-3.2,1.4-3.2,3.2c0,1.7,1.4,3.2,3.2,3.2c1.7,0,3.2-1.4,3.2-3.2S55.4,38.1,53.6,38.1z"/>
<path class="st7" d="M53.6,44.4c0.5,0,1-0.2,1.5-0.4c-0.1-0.1-0.2-0.2-0.3-0.2C53.7,43.3,54,42,54,42l-2.2-3.4
	c-0.8,0.6-1.4,1.5-1.4,2.6C50.5,43,51.9,44.4,53.6,44.4L53.6,44.4z"/>
<path class="st1" d="M37.1,21.4l-0.5,1c-0.2,0.3-0.2,0.6-0.2,0.9l0.4,3c0.2,1.2,0.1,2.4-0.2,3.5l-2.2,10.5C34,42.5,32,44,29.8,44
	h-14c0.7,1,1.5,2,2.3,2.9c2.6,0,6.4,0,11.8,0c3.5,0,6.7-2.5,7.4-6l2.2-10.4c0.2-1.1,0.8-2.1,1.6-2.9l1-0.9l0,0l-4-6.1
	C37.7,20.7,37.3,21,37.1,21.4L37.1,21.4z"/>
<path class="st7" d="M29.9,13.7l-1.4-2.8l-3.7,3.5c-0.7,0.6-0.7,1.6-0.1,2.3c0.6,0.7,1.6,0.7,2.3,0.1l2.9-2.8
	C30,13.8,30,13.7,29.9,13.7z"/>
<path class="st8" d="M41.3,19c0,2,3.2,3.6,7,3.6v-7.2C44.5,15.4,41.3,17.1,41.3,19z"/>
<path class="st9" d="M41.3,19c0,2,3.2,3.6,7,3.6v-3.3c-3.2,0-5.8-0.6-6.7-1.4C41.4,18.3,41.3,18.6,41.3,19z"/>
<path class="st1" d="M48.4,23.6c-0.5,0-1-0.4-1-1v-7.2c0-0.5,0.4-1,1-1c0.5,0,1,0.4,1,1v7.2C49.4,23.2,48.9,23.6,48.4,23.6z"/>
<path class="st8" d="M48.4,20.3c-0.5,0-1-0.4-1-1v3.4c0,0.5,0.4,1,1,1c0.5,0,1-0.4,1-1v-3.4C49.4,19.8,48.9,20.3,48.4,20.3z"/>
<path class="st10" d="M59.9,30.2c-2.4-1.6-6.4-3.3-12.4-0.9l2.8,4.4c1.8-0.8,3.8-0.9,5.6-0.5c1.6,0.3,3.4-0.3,4.3-1.7
	C60.4,31,60.3,30.5,59.9,30.2L59.9,30.2z"/>
<path class="st10" d="M45.4,31.1C45.3,31,45.2,31,45.2,31c-1.7,1.7-2.9,4-3.4,6.5c0,0-0.5,1.9-1.5,3.5c-0.4,0.7,0.1,1.6,1,1.6
	c1.7-0.2,3.2-1.3,3.7-3c0.5-1.8,1.6-3.4,2.9-4.6L45.4,31.1z"/>
<path class="st11" d="M47.9,35l-2.6-3.9C45.2,31,45.1,31,45.1,31c-1.5,1.5-2.6,3.4-3.2,5.5c1-0.1,2.7,0.1,3.2,2.5
	C45.7,37.4,46.7,36.1,47.9,35z"/>
<path class="st7" d="M32.7,28.1c-0.2,0.1-0.5,0.1-0.8,0.1h-5.6V44h3.4c2.2,0,4.1-1.5,4.6-3.7l1.9-9L32.7,28.1z"/>
<path class="st6" d="M35.5,35.3l0.8-3.9l-3.6-3.3c-0.2,0.1-0.5,0.1-0.8,0.1h-4.4L35.5,35.3z"/>
<path class="st4" d="M20.9,28c-0.4,0-0.8-0.2-1-0.4l-0.4,0.3c0.1,0.5-0.2,1-0.7,1.3l-1.9,1.1c0.8,0.1,1.5,0.8,1.5,1.6v4.9
	c0,0.5-0.2,0.9-0.5,1.2l0.6,2.5c0.4,2.1,2.4,3.7,4.6,3.7h3.4V28H20.9z"/>
<path class="st6" d="M18.3,31.8v2.6l7.1-6.4h-4.6c-0.4,0-0.8-0.2-1-0.4l-0.4,0.2c0.1,0.5-0.2,1-0.7,1.3l-1.9,1.1
	C17.7,30.2,18.3,31,18.3,31.8z"/>
<ellipse class="st1" cx="26.4" cy="33.8" rx="4.7" ry="2.9"/>
<path class="st1" d="M17.1,30l-5.4,3.2c0.2,1.9,0.7,3.6,1.3,5.3h3.8c1,0,1.9-0.8,1.9-1.9v-4.9C18.5,31,17.9,30.2,17.1,30L17.1,30z"
	/>
<path class="st8" d="M13,38.5h3.8c-3.2-2.1-2.8-4.7-2.3-6c0.1-0.3,0.1-0.6-0.1-0.9l-2.6,1.6C11.9,35,12.4,36.8,13,38.5z"/>
<path class="st1" d="M54.5,39.8l-7-10.8c0,0.7-0.3,1.3-0.9,1.6c-0.5,0.4-1.2,0.4-1.8,0.2l7,10.8c0.5,0.8,1.5,0.9,2.2,0.5
	C54.8,41.5,55,40.5,54.5,39.8L54.5,39.8z"/>
<path class="st1" d="M36.3,12.1c-0.8-1.3-2.1-2.1-3.7-2.3c-0.5,0-1,0-1.5,0.1l1.5,2.9c0.5,0.2,0.9,0.4,1.3,0.9l2.8,4.4
	c0.1-0.5,0.4-1.1,0.9-1.4c0.4-0.3,1-0.4,1.5-0.3L36.3,12.1z"/>
<path class="st8" d="M35.8,11.4c-0.8-0.9-1.9-1.5-3.2-1.6c-0.5,0-1,0-1.5,0.1l1.5,2.9c0.5,0.2,0.9,0.4,1.3,0.9
	C33.5,11.1,35.8,11.4,35.8,11.4L35.8,11.4z"/>
<path class="st8" d="M44.2,30.4L36.8,19c-0.6-0.9-0.3-2.1,0.6-2.7c0.9-0.6,2.1-0.3,2.7,0.6l7.3,11.3c0.6,0.9,0.3,2.1-0.6,2.7
	C46,31.6,44.8,31.3,44.2,30.4z"/>
<path class="st9" d="M42.8,24.7c0.8-0.5,1.7-0.4,2.3,0L40,16.8c-0.6-0.9-1.8-1.1-2.7-0.6c-0.9,0.6-1.1,1.8-0.6,2.7l5.1,7.9
	C41.8,26,42.1,25.2,42.8,24.7L42.8,24.7z"/>
<path class="st4" d="M32.5,12.3L30.9,9c-0.4-0.8-1.4-1.1-2.1-0.7c-0.8,0.4-1.1,1.4-0.7,2.1l1.6,3.3c0.2,0.4,0.8,0.7,1.2,0.4l1.3-0.6
	C32.5,13.2,32.8,12.7,32.5,12.3L32.5,12.3z"/>
<path class="st7" d="M17.5,26.4c-1.3,0.4-3.3,1-5.9,1.1c-0.1,0.8-0.1,1.6-0.1,2.5c0,1.2,0.1,2.3,0.2,3.5l7.1-4.3
	c0.8-0.4,1-1.4,0.5-2.2C19,26.4,18.2,26.2,17.5,26.4z"/>
<path class="st4" d="M14,31.2c-2-1.6-0.5-3.9-0.5-3.9l0,0c-0.6,0.1-1.2,0.1-1.9,0.2c-0.1,0.8-0.1,1.6-0.1,2.5c0,1.2,0.1,2.3,0.2,3.5
	l2.7-1.6C14.3,31.7,14.2,31.4,14,31.2z"/>
<g>
	<path class="st6" d="M32.1,39l-1.5-1.3c-0.4-0.4-0.4-1-0.1-1.5c0.4-0.4,1-0.4,1.5-0.1l1.5,1.3c0.4,0.4,0.4,1,0.1,1.5
		C33.1,39.3,32.5,39.3,32.1,39z"/>
	<path class="st6" d="M30.1,42.2l-2.2-2c-0.4-0.4-0.4-1-0.1-1.5c0.4-0.4,1-0.4,1.5-0.1l2.2,2c0.4,0.4,0.4,1,0.1,1.5
		C31.2,42.6,30.5,42.6,30.1,42.2L30.1,42.2z"/>
	<circle class="st6" cx="22.5" cy="39.8" r="2.7"/>
</g>
<path class="st7" d="M22.5,37.1c-1.5,0-2.7,1.3-2.7,2.7c0,1,0.5,1.9,1.4,2.3l1.4-2v-1.7C21.7,37.7,22.5,37.1,22.5,37.1z"/>
<path class="st8" d="M21.4,38.8c-0.7,0.7-1.6,1-2.6,1h-5.3c0.4,1,0.9,2,1.5,2.9h3.9c1.7,0,3.3-0.7,4.6-1.8c0.6-0.5,0.7-1.5,0.1-2.1
	C22.9,38.3,22,38.3,21.4,38.8L21.4,38.8z"/>
<path class="st10" d="M35.7,20.9C35,20,34.1,19.3,32.8,19c-4.2-0.8-10.8,4.4-13,6.4c-0.5,0.4-0.7,1-0.5,1.7s0.8,1.2,1.6,1.2H32
	C35.8,28.2,38,23.9,35.7,20.9L35.7,20.9z"/>
<path class="st12" d="M28.2,20.7c0.5-0.7,1.1-1.3,2-1.6c-3.9,0.9-8.6,4.7-10.4,6.3c-0.5,0.4-0.7,1-0.5,1.7s0.8,1.2,1.6,1.2h9.8
	C27.6,27.2,26.2,23.4,28.2,20.7z"/>
<path class="st8" d="M31.8,43.6c-0.6,0.3-1.3,0.4-2,0.4h-14c0.7,1,1.5,2,2.3,2.9c2.6,0,6.4,0,11.8,0c1.1,0,2.2-0.3,3.2-0.7
	C31,45.6,31.8,43.6,31.8,43.6z"/>
<path class="st9" d="M13.5,39.8c0.4,1,0.9,2,1.5,2.9h3.9c0.3,0,0.5,0,0.8-0.1c-2.6-0.9-1.3-2.9-1.3-2.9L13.5,39.8z"/>
<path class="st8" d="M26.4,30.9c-2.6,0-4.7,1.3-4.7,2.9s2.1,2.9,4.7,2.9c-1.1-1.1,0-1.9,0-1.9v-1.9C25.2,31.9,26.4,30.9,26.4,30.9z"
	/>
<path class="st9" d="M27.6,32.8h-2.5c-0.5,0-1,0.4-1,1c0,0.5,0.4,1,1,1h2.5c0.5,0,1-0.4,1-1S28.1,32.8,27.6,32.8z"/>
<path class="st13" d="M75.9,31.7c-0.6-0.3-1.1-0.6-1.6-1.1c-0.4-0.5-0.8-1-1.1-1.6c-0.3-0.6-0.4-1.3-0.4-2s0.1-1.4,0.4-2
	s0.6-1.1,1.1-1.6c0.4-0.4,1-0.8,1.6-1.1c0.6-0.3,1.3-0.4,2-0.4h22.8c0.5,0,0.9,0.2,1.3,0.5c0.3,0.3,0.5,0.8,0.5,1.3
	s-0.2,0.9-0.5,1.3c-0.3,0.3-0.8,0.5-1.3,0.5h-23c-0.4,0-0.7,0.1-1,0.4s-0.4,0.6-0.4,1s0.2,0.7,0.4,1c0.3,0.3,0.6,0.4,1,0.4h20.8
	c0.7,0,1.4,0.1,2,0.4s1.1,0.6,1.6,1.1c0.4,0.5,0.8,1,1.1,1.6s0.4,1.3,0.4,2s-0.1,1.4-0.4,2s-0.6,1.1-1.1,1.6c-0.4,0.4-1,0.8-1.6,1
	c-0.6,0.3-1.3,0.4-2,0.4H75.8c-0.5,0-0.9-0.2-1.3-0.5c-0.3-0.3-0.5-0.8-0.5-1.3s0.2-0.9,0.5-1.3c0.3-0.3,0.8-0.5,1.3-0.5h22.9
	c0.4,0,0.7-0.1,1-0.4s0.4-0.6,0.4-1s-0.2-0.8-0.4-1s-0.6-0.4-1-0.4H77.8C77.1,32.1,76.5,31.9,75.9,31.7z"/>
<path class="st2" d="M110.5,37.8c-0.4,0.4-0.8,0.7-1.4,0.7c-0.5,0-0.9-0.2-1.3-0.5c-0.3-0.3-0.5-0.8-0.5-1.3c0-0.4,0.1-0.8,0.4-1.1
	l9.1-12.3c0.4-0.6,1-1,1.7-1.4s1.5-0.5,2.2-0.5c0.8,0,1.5,0.2,2.1,0.5s1.2,0.8,1.6,1.4l9.1,12.2c0.2,0.2,0.3,0.4,0.4,0.6
	s0.2,0.4,0.2,0.7c0,0.5-0.2,0.9-0.5,1.3c-0.3,0.3-0.8,0.5-1.3,0.5c-0.6,0-1.1-0.2-1.4-0.7l-8.7-11.7c-0.2-0.2-0.4-0.4-0.7-0.7
	s-0.5-0.4-0.8-0.4s-0.5,0.1-0.8,0.4c-0.3,0.2-0.5,0.4-0.6,0.7L110.5,37.8z M118.5,34.4c0-0.7,0.2-1.2,0.7-1.6c0.4-0.4,1-0.7,1.6-0.7
	s1.2,0.2,1.6,0.7c0.4,0.4,0.7,1,0.7,1.6s-0.2,1.2-0.7,1.6c-0.4,0.4-1,0.7-1.6,0.7s-1.2-0.2-1.6-0.7C118.7,35.6,118.5,35,118.5,34.4z
	"/>
<path class="st13" d="M137.5,22.6c0.3-0.3,0.8-0.5,1.3-0.5s0.9,0.2,1.3,0.5c0.3,0.3,0.5,0.8,0.5,1.3v6.4c0,0.4,0.1,0.9,0.2,1.5
	c0.1,0.5,0.3,1,0.7,1.5c0.3,0.4,0.8,0.8,1.3,1.1s1.3,0.5,2.1,0.5h8.7c-0.4-0.7-0.7-1.5-0.9-2.2c-0.2-0.8-0.3-1.6-0.3-2.3V24
	c0-0.5,0.2-0.9,0.5-1.3c0.3-0.3,0.8-0.5,1.3-0.5s0.9,0.2,1.3,0.5c0.3,0.3,0.5,0.8,0.5,1.3v6.4c0,0.4,0.1,0.9,0.2,1.5
	c0.1,0.5,0.3,1,0.6,1.5s0.7,0.9,1.2,1.1c0.5,0.3,1.1,0.5,2,0.5h3.5c0.9,0,1.5-0.2,2.1-0.5c0.5-0.3,1-0.7,1.3-1.1
	c0.3-0.4,0.5-0.9,0.7-1.5c0.1-0.5,0.2-1,0.2-1.5V24c0-0.5,0.2-0.9,0.5-1.3c0.3-0.3,0.8-0.5,1.3-0.5s0.9,0.2,1.3,0.5
	c0.3,0.3,0.5,0.8,0.5,1.3v6.4c0,0.9-0.2,1.9-0.5,2.9s-0.8,1.9-1.4,2.6c-0.6,0.8-1.3,1.4-2.2,1.9s-1.8,0.8-2.9,0.8h-20.8
	c-1,0-2-0.3-2.7-0.8c-0.8-0.5-1.5-1.1-2.1-1.9c-0.5-0.8-1-1.7-1.3-2.7s-0.4-1.9-0.4-2.8V24C137,23.4,137.2,22.9,137.5,22.6z"/>
<path class="st2" d="M177.3,37.8c-0.4,0.4-0.8,0.7-1.4,0.7c-0.5,0-0.9-0.2-1.3-0.5c-0.3-0.3-0.5-0.8-0.5-1.3c0-0.4,0.1-0.8,0.4-1.1
	l9.1-12.3c0.4-0.6,1-1,1.7-1.4s1.5-0.5,2.2-0.5s1.5,0.2,2.1,0.5c0.7,0.3,1.2,0.8,1.6,1.4l9.1,12.2c0.2,0.2,0.3,0.4,0.4,0.6
	s0.2,0.4,0.2,0.7c0,0.5-0.2,0.9-0.5,1.3c-0.3,0.3-0.8,0.5-1.3,0.5c-0.6,0-1.1-0.2-1.4-0.7L189,26.1c-0.2-0.2-0.4-0.4-0.7-0.7
	c-0.3-0.2-0.5-0.4-0.8-0.4s-0.5,0.1-0.8,0.4c-0.3,0.2-0.5,0.4-0.6,0.7L177.3,37.8z M185.2,34.4c0-0.7,0.2-1.2,0.7-1.6
	c0.4-0.4,1-0.7,1.6-0.7s1.2,0.2,1.6,0.7s0.7,1,0.7,1.6s-0.2,1.2-0.7,1.6c-0.4,0.4-1,0.7-1.6,0.7s-1.2-0.2-1.6-0.7
	C185.5,35.6,185.2,35,185.2,34.4z"/>
<path class="st13" d="M234.1,36.7c0,0.5-0.2,0.9-0.5,1.3c-0.3,0.3-0.8,0.5-1.3,0.5c-0.3,0-0.5-0.1-0.7-0.2c-0.2-0.1-0.4-0.2-0.5-0.4
	c-0.2-0.2-0.3-0.3-0.3-0.4c-1-1.3-2.1-2.3-3.2-3c-1.1-0.7-2.2-1.3-3.4-1.6c-1.2-0.4-2.5-0.6-3.8-0.7c-1.4-0.1-2.8-0.1-4.3-0.1h-7.7
	v4.6c0,0.5-0.2,0.9-0.5,1.3c-0.4,0.3-0.8,0.5-1.3,0.5s-0.9-0.2-1.3-0.5c-0.3-0.3-0.5-0.8-0.5-1.3V27c0-0.8,0.2-1.4,0.4-2
	c0.3-0.6,0.6-1.1,1-1.5s0.9-0.8,1.5-1c0.5-0.2,1.1-0.4,1.6-0.4H229c0.7,0,1.4,0.1,2,0.4s1.2,0.6,1.6,1.1c0.5,0.4,0.9,1,1.1,1.6
	c0.3,0.6,0.4,1.3,0.4,2c0,0.5-0.2,0.9-0.5,1.3c-0.3,0.3-0.8,0.5-1.3,0.5s-0.9-0.2-1.3-0.5c-0.3-0.3-0.5-0.8-0.5-1.3
	c0-0.4-0.1-0.7-0.4-0.9c-0.3-0.3-0.5-0.4-0.9-0.4h-19.7c-0.3,0-0.6,0.1-0.8,0.2c-0.2,0.2-0.3,0.4-0.4,0.6v2h7.7c2.2,0,4.2,0.1,6,0.4
	s3.4,0.7,4.9,1.2c1.4,0.5,2.7,1.3,3.9,2.2c1.1,0.9,2.2,2,3.1,3.4C234,36,234.1,36.3,234.1,36.7z"/>
<path class="st2" d="M241,37.9c-0.3,0.3-0.8,0.5-1.3,0.5s-0.9-0.2-1.3-0.5c-0.3-0.3-0.5-0.8-0.5-1.3V23.9c0-0.5,0.2-0.9,0.5-1.3
	c0.3-0.3,0.8-0.5,1.3-0.5s0.9,0.2,1.3,0.5c0.3,0.3,0.5,0.8,0.5,1.3v12.8C241.4,37.2,241.3,37.6,241,37.9z"/>
</svg>
